Coordinates																															
version=1																															
nRows=10																															
nColumns=32																															
inDegrees=no																															
																															
"Units are S.I. units (second, meters, Newtons, ...)"																															
"If the header above contains a line with 'inDegrees', this indicates whether rotational values are in degrees (yes) or radians (no)."																															
																															
endheader																															
time	pelvis_tilt	pelvis_list	pelvis_rotation	pelvis_tx	pelvis_ty	pelvis_tz	hip_flexion_r	hip_adduction_r	hip_rotation_r	knee_angle_r	ankle_angle_r	subtalar_angle_r	mtp_angle_r	hip_flexion_l	hip_adduction_l	hip_rotation_l	knee_angle_l	ankle_angle_l	subtalar_angle_l	mtp_angle_l	lumbar_extension	lumbar_bending	lumbar_rotation	arm_flex_r	arm_add_r	arm_rot_r	elbow_flex_r	arm_flex_l	arm_add_l	arm_rot_l	elbow_flex_l
0.713071428	-0.0198083	0.121595034	-0.148724572	0.700948345	0.914292232	0.474263083	-0.028584391	-0.209502731	-0.047384578	1.009021771	-0.271811345	-0.242327556	-0.088025562	0.455518384	0.139036144	-0.057490492	0.56641302	0.168616576	-0.38041294	0.010825868	-0.071096127	-0.067825354	0.099400563	0.240799374	-0.267525303	0.00270644	0.921258367	-0.135412003	-0.208397398	0.256760236	0.319032108
0.723714286	-0.018694458	0.126335718	-0.15262137	0.700972227	0.915984316	0.473074315	0.012604262	-0.216100167	-0.039291263	1.069552133	-0.283909296	-0.254780528	-0.011848485	0.440677089	0.145833051	-0.064698877	0.57013893	0.172180384	-0.376543988	0.017199931	-0.07162904	-0.069905607	0.099741512	0.222866048	-0.262847744	0.005400262	0.894294578	-0.131996687	-0.203648394	0.257435669	0.319467852
0.734357143	-0.018659126	0.128040009	-0.154890617	0.700620093	0.917886423	0.472073816	0.053399449	-0.216545116	-0.029897045	1.122255908	-0.280030553	-0.260982361	0.042120902	0.42583126	0.14891207	-0.071027463	0.572770566	0.177161	-0.367643698	0.025544662	-0.072193368	-0.069181394	0.098564638	0.204419677	-0.258244939	0.008286561	0.865351257	-0.127223989	-0.199009115	0.257384016	0.321907074
0.745	-0.019473129	0.127203232	-0.155475546	0.69995223	0.920005753	0.471235325	0.093291145	-0.211864991	-0.020402923	1.166719666	-0.263926593	-0.262815407	0.075094932	0.410681051	0.148959508	-0.076237193	0.57410219	0.183261375	-0.354531289	0.033830809	-0.072835419	-0.066182078	0.095776511	0.185605983	-0.253810858	0.011055658	0.834916374	-0.121267323	-0.194729182	0.256608767	0.326477771
0.755642857	-0.020898591	0.124354591	-0.154333414	0.699028403	0.922347629	0.470530722	0.131802399	-0.203173683	-0.012017829	1.202594629	-0.23964063	-0.262200272	0.088897535	0.394938325	0.146700253	-0.080104017	0.57393578	0.190167903	-0.338054951	0.039895608	-0.073605249	-0.061469985	0.091293332	0.1665688	-0.249640485	0.013389652	0.803490688	-0.114305104	-0.191060205	0.255115064	0.333307693
0.766285714	-0.022747025	0.120002289	-0.151505819	0.697897243	0.924895927	0.469935361	0.168663299	-0.191597023	-0.005636457	1.229798275	-0.210431662	-0.26047989	0.086850643	0.378346082	0.142798395	-0.082497718	0.571974812	0.197599275	-0.319013941	0.042627334	-0.074513939	-0.055569249	0.08511135	0.147458987	-0.245786348	0.015061993	0.771561088	-0.106522264	-0.188224706	0.252917753	0.342511495
0.776928571	-0.024928709	0.114612537	-0.147202995	0.696585116	0.927591629	0.469431531	0.204017922	-0.178284724	-0.001525159	1.248780478	-0.177990574	-0.257842098	0.075271595	0.360709594	0.137796444	-0.083475715	0.567725787	0.205338768	-0.298109669	0.04301591	-0.075494637	-0.048927639	0.077386871	0.128441442	-0.242216085	0.016028796	0.739586717	-0.098116759	-0.186387051	0.25005109	0.354177644
0.787571428	-0.027365808	0.108646172	-0.141655293	0.695115706	0.930370605	0.469002359	0.238059606	-0.164388395	0.000125046	1.260054389	-0.143821187	-0.254337345	0.060825965	0.341842068	0.132222019	-0.083117704	0.560672647	0.213177439	-0.276031958	0.042300313	-0.076471248	-0.041983425	0.068295385	0.109682742	-0.238887165	0.016268132	0.708023121	-0.089287889	-0.185704436	0.246551883	0.368391248
0.798214286	-0.030010767	0.102477265	-0.135103338	0.693505419	0.933166366	0.468634004	0.270979763	-0.150840701	-0.000748593	1.264113464	-0.109324378	-0.250034962	0.048275845	0.321678032	0.12650434	-0.081492212	0.550502369	0.220927613	-0.253483528	0.041474528	-0.07737553	-0.0350806	0.058042573	0.091351192	-0.235742266	0.015808275	0.67725683	-0.080187509	-0.186277346	0.242513367	0.385181257
0.808857143	-0.032884865	0.096282656	-0.127811122	0.691754113	0.935907057	0.468319509	0.302965412	-0.138076618	-0.003917261	1.261406391	-0.075667031	-0.245047193	0.038056391	0.300427807	0.120848958	-0.078642366	0.537363469	0.228449953	-0.231196437	0.040975638	-0.07815708	-0.028348842	0.046902758	0.073619034	-0.232690447	0.014791622	0.647517503	-0.070859629	-0.188077352	0.238157046	0.404448955
